<svg width="140" height="49" viewBox="0 0 140 49" fill="none" xmlns="http://www.w3.org/2000/svg">
<path fill-rule="evenodd" clip-rule="evenodd" d="M62.1392 0L69.9714 15.8308L78.6097 7.91515L74.8835 0H62.1392Z" fill="white"/>
<path fill-rule="evenodd" clip-rule="evenodd" d="M85.5433 0L54.6523 36.1846H66.9574L75.0298 26.5727L79.4808 36.1846H100.686L103.534 20.0611L106.106 28.9628L113.797 19.7194L108.12 0H85.5433ZM83.2884 17.325L96.2879 2.31002L90.8122 33.3022L83.2884 17.325Z" fill="white"/>
<path fill-rule="evenodd" clip-rule="evenodd" d="M126.583 0L106.31 31.2568H116.48L124.198 19.0251L121.218 36.1846H131.472L137.754 0H126.583Z" fill="white"/>
<path fill-rule="evenodd" clip-rule="evenodd" d="M17.7997 1.47369C17.652 3.0468 17.4029 4.89656 17.5694 6.57234C17.8068 8.97466 19.2896 10.2048 21.2304 10.9718C21.8166 11.2033 22.6704 11.5453 23.441 11.3734C23.7972 11.2926 24.043 11.0502 24.2659 10.9057C24.9217 10.4841 25.7333 10.0924 26.7066 9.9731C28.1645 9.79437 29.5464 10.173 30.6318 10.4727C31.6649 10.7602 33.0162 11.1771 33.8945 11.7057C34.3779 11.9947 34.7263 12.4327 34.9845 12.8738C35.4338 13.6374 35.6161 14.9429 36.6339 15.1711C36.8821 14.1225 36.6819 12.9625 36.7334 11.8043C36.779 10.7381 36.9705 9.65629 37.1615 8.70729C37.437 7.33406 37.8258 5.85863 38.2499 4.50726C38.3158 4.29788 38.5065 3.22458 38.9106 3.37502C39.0866 3.44133 39.0482 3.88101 39.0412 4.10822C39.0169 4.99947 38.9452 5.654 38.8768 6.54025C38.7079 8.73177 38.6813 11.1721 39.0748 13.0399C39.2879 14.0507 39.5264 15.0164 39.438 16.1724C39.4152 16.4676 39.2628 16.811 39.2063 17.1368C39.16 17.4089 39.2054 17.6319 39.1407 17.8396C39.0412 18.1557 38.7761 18.5576 38.5474 18.9046C38.4886 18.9916 38.3793 19.1986 38.2499 19.4389C38.1358 19.647 37.9417 19.7511 37.9535 19.9703C37.9683 20.3085 38.6288 20.9706 38.9753 21.0702C40.4506 21.4918 42.0847 21.7159 42.9659 22.6024C43.4862 23.126 43.9032 23.8017 43.9884 24.7367C44.0627 25.53 43.7999 26.1938 43.4932 26.9023C43.2848 27.3845 43.087 28.5704 42.7356 28.8017C42.4756 28.9738 42.0525 28.8671 41.7458 29.037C41.6519 29.4607 41.4543 29.784 41.416 30.2681C41.1652 30.6246 40.7933 30.8585 40.5264 31.2002C40.6115 31.9883 40.1213 32.1918 39.47 32.2353C37.5435 33.8238 33.7136 32.7733 32.0821 31.7015C31.2744 32.284 30.3737 32.7733 30.4673 34.268C31.1627 34.6625 31.7105 35.1222 32.5446 35.3998C33.6431 35.771 34.9963 35.5714 35.7109 36.2328C35.7671 36.2858 35.821 36.3511 35.8765 36.4106H41.3967L57.0782 18.0062L48.5093 0.149658H17.9063C17.8726 0.606452 17.8413 1.04352 17.7997 1.47369Z" fill="#FF0000"/>
<path fill-rule="evenodd" clip-rule="evenodd" d="M3.42015 36.2329C4.4102 35.1786 5.84764 34.4533 7.24627 33.8339C8.33629 33.3512 9.45359 32.9367 10.3131 32.2354C10.6942 31.9228 10.9929 31.5998 11.4337 31.5331C12.3017 31.4081 13.1445 31.7933 13.8101 31.935C15.607 32.3193 16.9795 31.4123 17.8668 30.4671C18.3184 29.9892 18.8928 29.5257 19.1527 28.8672C19.4804 28.0432 19.335 27.0089 19.3498 25.97C19.3818 23.8897 20.1207 22.4269 20.1418 20.5047C20.1536 19.5186 19.9165 18.5463 20.0438 17.5372C19.0175 17.0043 17.8284 16.4924 17.0084 15.5726C16.211 14.6764 15.2869 13.0049 15.5576 11.5401C14.9488 10.5945 14.4095 9.30561 14.4034 7.80665C14.3963 6.32695 14.8395 5.09132 15.2281 3.73995C15.5684 2.55662 15.9104 1.35807 16.2736 0.149536H9.38961L1.63623 36.4107H3.27149C3.32183 36.3527 3.36723 36.2899 3.42015 36.2329Z" fill="#FF0000"/>
<mask id="mask0_207_5" style="mask-type:alpha" maskUnits="userSpaceOnUse" x="0" y="42" width="7" height="7">
<path fill-rule="evenodd" clip-rule="evenodd" d="M0 42.9999H6.52755V48.1242H0V42.9999Z" fill="white"/>
</mask>
<g mask="url(#mask0_207_5)">
<path fill-rule="evenodd" clip-rule="evenodd" d="M1.07261 42.9999H2.61402L3.00472 46.7101H3.01884L4.97212 42.9999H6.52764L5.45527 48.1242H4.41112L5.33436 44.0475H5.32025L3.17502 48.1242H2.32282L1.83261 44.0475H1.8185L1.05826 48.1242H0L1.07261 42.9999Z" fill="white"/>
</g>
<path fill-rule="evenodd" clip-rule="evenodd" d="M7.75526 42.9999H11.6265L11.4346 43.9472H8.67874L8.45128 45.0455H11.0013L10.8167 45.921H8.26663L8.00389 47.1766H10.8026L10.6036 48.1242H6.68994L7.75526 42.9999Z" fill="white"/>
<path fill-rule="evenodd" clip-rule="evenodd" d="M12.7479 42.9999H14.2893L14.68 46.7101H14.6941L16.6474 42.9999H18.2029L17.1306 48.1242H16.0864L17.0097 44.0475H16.9955L14.8503 48.1242H13.9981L13.5079 44.0475H13.4938L12.7336 48.1242H11.6753L12.7479 42.9999Z" fill="white"/>
<path fill-rule="evenodd" clip-rule="evenodd" d="M20.3616 45.0739H21.6259C22.0307 45.0739 22.3789 44.8445 22.3789 44.3994C22.3789 44.0117 22.1516 43.8753 21.7894 43.8753H20.6102L20.3616 45.0739ZM19.9069 47.2485H21.3063C21.8106 47.2485 22.1799 46.9688 22.1799 46.4233C22.1799 45.8848 21.704 45.842 21.2992 45.842H20.2052L19.9069 47.2485ZM19.7152 42.9998H21.8461C22.8618 42.9998 23.4941 43.2222 23.4941 44.1983C23.4941 44.7796 23.1389 45.3179 22.5424 45.39V45.4045C23.0253 45.5335 23.2951 45.9499 23.2951 46.4447C23.2951 47.5572 22.3718 48.1241 21.3561 48.1241H18.6499L19.7152 42.9998Z" fill="white"/>
<path fill-rule="evenodd" clip-rule="evenodd" d="M25.0912 42.9999H28.9625L28.7705 43.9472H26.0147L25.7872 45.0455H28.3373L28.1526 45.921H25.6026L25.3398 47.1766H28.1385L27.9395 48.1242H24.0259L25.0912 42.9999Z" fill="white"/>
<path fill-rule="evenodd" clip-rule="evenodd" d="M30.8438 45.3181H31.8736C32.4633 45.3181 33.0246 45.0814 33.0246 44.5072C33.0246 43.9543 32.6409 43.8754 32.2006 43.8754H31.1423L30.8438 45.3181ZM30.2045 42.9999H32.6268C33.543 42.9999 34.1397 43.3519 34.1397 44.342C34.1397 45.0381 33.6566 45.6194 32.9747 45.72V45.7345C33.3939 45.8635 33.5004 46.2366 33.5004 46.6388C33.5004 46.8684 33.4649 47.213 33.4649 47.5286C33.4649 47.7584 33.479 47.9737 33.5359 48.1242H32.4492C32.4207 48.002 32.3993 47.8948 32.3993 47.7796C32.3993 47.4352 32.4563 47.0835 32.4563 46.7391C32.4563 46.2438 32.1651 46.1221 31.7247 46.1221H30.6733L30.2543 48.1242H29.1392L30.2045 42.9999Z" fill="white"/>
<path fill-rule="evenodd" clip-rule="evenodd" d="M39.2952 47.2987C40.389 47.2987 40.9361 46.1221 40.9361 45.1529C40.9361 44.4351 40.6235 43.8253 39.8066 43.8253C38.6629 43.8253 38.1445 44.995 38.1445 45.978C38.1445 46.6818 38.4856 47.2987 39.2952 47.2987ZM39.7995 42.8777C41.1704 42.8777 42.0513 43.6387 42.0513 45.074C42.0513 46.7607 41.0568 48.2461 39.2811 48.2461C37.8603 48.2461 37.0293 47.4209 37.0293 45.978C37.0293 44.3206 38.0878 42.8777 39.7995 42.8777Z" fill="white"/>
<path fill-rule="evenodd" clip-rule="evenodd" d="M43.6058 42.9999H47.2141L47.0081 43.9472H44.5222L44.2734 45.1315H46.4471L46.2624 46.0068H44.0958L43.6484 48.1242H42.5332L43.6058 42.9999Z" fill="white"/>
<path fill-rule="evenodd" clip-rule="evenodd" d="M51.2195 43.9473H49.6284L49.8272 43H54.0607L53.8617 43.9473H52.3417L51.4751 48.1241H50.3529L51.2195 43.9473Z" fill="white"/>
<path fill-rule="evenodd" clip-rule="evenodd" d="M55.6509 45.3181H56.6807C57.2704 45.3181 57.8317 45.0814 57.8317 44.5072C57.8317 43.9543 57.448 43.8754 57.0077 43.8754H55.9494L55.6509 45.3181ZM55.0116 42.9999H57.4339C58.3501 42.9999 58.9469 43.3519 58.9469 44.342C58.9469 45.0381 58.4637 45.6194 57.7818 45.72V45.7345C58.201 45.8635 58.3075 46.2366 58.3075 46.6388C58.3075 46.8684 58.272 47.213 58.272 47.5286C58.272 47.7584 58.2861 47.9737 58.3431 48.1242H57.2563C57.2279 48.002 57.2065 47.8948 57.2065 47.7796C57.2065 47.4352 57.2634 47.0835 57.2634 46.7391C57.2634 46.2438 56.9722 46.1221 56.5318 46.1221H55.4804L55.0615 48.1242H53.9463L55.0116 42.9999Z" fill="white"/>
<path fill-rule="evenodd" clip-rule="evenodd" d="M61.4883 46.1434H62.8451L62.5965 44.1051H62.5821L61.4883 46.1434ZM62.2272 42.9998H63.3706L64.216 48.1241H63.1078L62.9444 46.983H61.048L60.4087 48.1241H59.2295L62.2272 42.9998Z" fill="white"/>
<path fill-rule="evenodd" clip-rule="evenodd" d="M66.2468 47.1767H67.1061C68.2427 47.1767 68.8749 46.2724 68.8749 45.1891C68.8749 44.4495 68.5623 43.9473 67.7668 43.9473H66.9285L66.2468 47.1767ZM66.0055 43H67.8378C69.2513 43 69.9901 43.7394 69.9901 44.995C69.9901 46.7822 69.0097 48.1241 67.0564 48.1241H64.9326L66.0055 43Z" fill="white"/>
<path fill-rule="evenodd" clip-rule="evenodd" d="M71.3746 42.9999H72.4968L71.4242 48.1242H70.3018L71.3746 42.9999Z" fill="white"/>
<path fill-rule="evenodd" clip-rule="evenodd" d="M73.6471 42.9999H74.7978L76.1757 46.6457H76.19L76.9145 42.9999H77.937L76.8647 48.1242H75.7495L74.3574 44.5285H74.3431L73.6186 48.1242H72.5742L73.6471 42.9999Z" fill="white"/>
<mask id="mask1_207_5" style="mask-type:alpha" maskUnits="userSpaceOnUse" x="78" y="42" width="6" height="7">
<path fill-rule="evenodd" clip-rule="evenodd" d="M78.377 42.8778H83.2992V48.2462H78.377V42.8778Z" fill="white"/>
</mask>
<g mask="url(#mask1_207_5)">
<path fill-rule="evenodd" clip-rule="evenodd" d="M81.9213 47.6005H81.9069C81.5734 48.0596 81.0973 48.2462 80.6285 48.2462C79.208 48.2462 78.377 47.4208 78.377 45.9782C78.377 44.3204 79.4352 42.8778 81.1472 42.8778C82.3334 42.8778 83.2992 43.4375 83.2992 44.6938H82.184C82.1558 44.0764 81.7721 43.8251 81.1542 43.8251C80.0106 43.8251 79.4921 44.9949 79.4921 45.9782C79.4921 46.6819 79.833 47.2986 80.6426 47.2986C81.488 47.2986 81.8575 46.8466 82.0492 46.1935H80.8774L81.0547 45.3538H83.207L82.6244 48.124H81.9213V47.6005Z" fill="white"/>
</g>
<path fill-rule="evenodd" clip-rule="evenodd" d="M87.6307 45.4114H88.7671C89.3283 45.4114 89.6835 45.1245 89.6835 44.5142C89.6835 43.9975 89.2858 43.8753 88.8951 43.8753H87.9431L87.6307 45.4114ZM87.0058 43H89.0371C90.0599 43 90.7987 43.3586 90.7987 44.4928C90.7987 45.6267 89.8752 46.2869 88.824 46.2869H87.4461L87.0625 48.1241H85.9473L87.0058 43Z" fill="white"/>
<path fill-rule="evenodd" clip-rule="evenodd" d="M93.7952 47.2987C94.889 47.2987 95.4361 46.1221 95.4361 45.1529C95.4361 44.4351 95.1235 43.8253 94.3068 43.8253C93.1629 43.8253 92.6445 44.995 92.6445 45.978C92.6445 46.6818 92.9856 47.2987 93.7952 47.2987ZM94.2997 42.8777C95.6706 42.8777 96.5513 43.6387 96.5513 45.074C96.5513 46.7607 95.5568 48.2461 93.7808 48.2461C92.3603 48.2461 91.5293 47.4209 91.5293 45.978C91.5293 44.3206 92.5876 42.8777 94.2997 42.8777Z" fill="white"/>
<path fill-rule="evenodd" clip-rule="evenodd" d="M98.0567 42.9999H99.179L98.1064 48.1242H96.9839L98.0567 42.9999Z" fill="white"/>
<path fill-rule="evenodd" clip-rule="evenodd" d="M100.329 42.9999H101.48L102.858 46.6457H102.872L103.597 42.9999H104.619L103.547 48.1242H102.432L101.04 44.5285H101.025L100.301 48.1242H99.2563L100.329 42.9999Z" fill="white"/>
<path fill-rule="evenodd" clip-rule="evenodd" d="M107.055 43.9473H105.464L105.663 43H109.896L109.697 43.9473H108.177L107.311 48.1241H106.188L107.055 43.9473Z" fill="white"/>
<mask id="mask2_207_5" style="mask-type:alpha" maskUnits="userSpaceOnUse" x="112" y="42" width="6" height="7">
<path fill-rule="evenodd" clip-rule="evenodd" d="M112.154 42.8778H117.076V48.2462H112.154V42.8778Z" fill="white"/>
</mask>
<g mask="url(#mask2_207_5)">
<path fill-rule="evenodd" clip-rule="evenodd" d="M115.698 47.6005H115.684C115.35 48.0596 114.874 48.2462 114.405 48.2462C112.985 48.2462 112.154 47.4208 112.154 45.9782C112.154 44.3204 113.212 42.8778 114.924 42.8778C116.11 42.8778 117.076 43.4375 117.076 44.6938H115.961C115.933 44.0764 115.549 43.8251 114.931 43.8251C113.787 43.8251 113.269 44.9949 113.269 45.9782C113.269 46.6819 113.61 47.2986 114.419 47.2986C115.265 47.2986 115.634 46.8466 115.826 46.1935H114.654L114.832 45.3538H116.984L116.401 48.124H115.698V47.6005Z" fill="white"/>
</g>
<path fill-rule="evenodd" clip-rule="evenodd" d="M119.291 45.3181H120.321C120.911 45.3181 121.472 45.0814 121.472 44.5072C121.472 43.9543 121.088 43.8754 120.648 43.8754H119.59L119.291 45.3181ZM118.652 42.9999H121.074C121.99 42.9999 122.587 43.3519 122.587 44.342C122.587 45.0381 122.104 45.6194 121.422 45.72V45.7345C121.841 45.8635 121.948 46.2366 121.948 46.6388C121.948 46.8684 121.912 47.213 121.912 47.5286C121.912 47.7584 121.927 47.9737 121.983 48.1242H120.896C120.868 48.002 120.847 47.8948 120.847 47.7796C120.847 47.4352 120.904 47.0835 120.904 46.7391C120.904 46.2438 120.612 46.1221 120.172 46.1221H119.121L118.702 48.1242H117.586L118.652 42.9999Z" fill="white"/>
<path fill-rule="evenodd" clip-rule="evenodd" d="M125.612 47.2987C126.706 47.2987 127.253 46.1221 127.253 45.1529C127.253 44.4351 126.94 43.8253 126.124 43.8253C124.98 43.8253 124.461 44.995 124.461 45.978C124.461 46.6818 124.802 47.2987 125.612 47.2987ZM126.117 42.8777C127.488 42.8777 128.368 43.6387 128.368 45.074C128.368 46.7607 127.374 48.2461 125.598 48.2461C124.177 48.2461 123.346 47.4209 123.346 45.978C123.346 44.3206 124.404 42.8777 126.117 42.8777Z" fill="white"/>
<path fill-rule="evenodd" clip-rule="evenodd" d="M133.588 45.9782C133.282 47.4496 132.721 48.2462 131.144 48.2462C130.157 48.2462 129.148 47.8443 129.148 46.7247C129.148 46.4666 129.205 46.2154 129.255 45.9642L129.873 43H130.988L130.37 45.9642C130.335 46.122 130.264 46.4447 130.264 46.6099C130.264 46.8685 130.448 47.2989 131.215 47.2989C132.124 47.2989 132.295 46.811 132.458 46.0357L133.091 43H134.206L133.588 45.9782Z" fill="white"/>
<mask id="mask3_207_5" style="mask-type:alpha" maskUnits="userSpaceOnUse" x="134" y="43" width="6" height="6">
<path fill-rule="evenodd" clip-rule="evenodd" d="M134.361 43H139.213V48.1241H134.361V43Z" fill="white"/>
</mask>
<g mask="url(#mask3_207_5)">
<path fill-rule="evenodd" clip-rule="evenodd" d="M136.045 45.4114H137.181C137.742 45.4114 138.098 45.1245 138.098 44.5142C138.098 43.9975 137.7 43.8753 137.309 43.8753H136.357L136.045 45.4114ZM135.42 43H137.451C138.474 43 139.213 43.3586 139.213 44.4928C139.213 45.6267 138.289 46.2869 137.238 46.2869H135.86L135.477 48.1241H134.361L135.42 43Z" fill="white"/>
</g>
</svg>
